<svg xmlns="http://www.w3.org/2000/svg" width="718" height="692" fill="none"><path fill="url(#a)" fill-rule="evenodd" d="M351.5 3.304c-3.3 1.804-43.575 24.832-89.5 51.173s-85.813 49.162-88.641 50.712c-2.827 1.551-5.637 3.418-6.244 4.15-.782.942-1.178 26.93-1.36 89.192l-.255 87.863-22 12.608c-12.1 6.934-32.8 18.856-46 26.493a33150.24 33150.24 0 0 1-58.448 33.695c-18.947 10.896-35.484 20.784-36.75 21.973L0 383.326v99.67c0 93.657.106 99.766 1.75 101.249 1.721 1.551 5.799 3.989 51.75 30.932 28.828 16.903 106.338 62.114 121 70.579 8.705 5.025 11.636 6.252 14.048 5.881 1.677-.258 10.452-4.846 19.5-10.196 9.049-5.351 45.252-26.706 80.452-47.458 35.2-20.751 65.577-38.671 67.505-39.822l3.505-2.092 7.995 5.109c9.172 5.861 151.504 91.229 155.9 93.506 4.367 2.262 8.13 1.146 20.182-5.987 6.002-3.552 18.338-10.725 27.413-15.94 20.328-11.682 106.878-61.751 128-74.048 8.525-4.963 16.288-9.703 17.25-10.533 1.645-1.419 1.75-7.549 1.75-102.278V381.129l-2.75-2.153c-1.513-1.184-16.25-9.719-32.75-18.967s-52.5-29.643-80-45.322l-50-28.507-.255-87.932-.256-87.933-2.244-2.029c-1.235-1.116-14.395-8.91-29.245-17.32a52427.825 52427.825 0 0 1-59.5-33.77 87429.402 87429.402 0 0 0-47.5-26.986c-8.25-4.68-18.6-10.62-23-13.2C365.324 2.243 361.187-.02 359.431 0c-1.062.012-4.631 1.5-7.931 3.304Zm40.165 40.32c98.122 55.72 127.407 72.67 126.661 73.31-.454.39-11.851 7.034-25.326 14.763a16039.975 16039.975 0 0 0-46 26.5l-50 28.943c-15.675 9.073-30.783 17.768-33.574 19.321l-5.074 2.824-30.926-17.802c-17.009-9.792-46.676-26.873-65.926-37.959a35063.933 35063.933 0 0 0-48.75-28.033c-7.562-4.332-13.75-8.186-13.75-8.565 0-.378 23.962-14.327 53.25-30.996 29.288-16.669 65.175-37.169 79.75-45.555 14.575-8.386 26.574-15.282 26.665-15.323.091-.04 14.941 8.316 33 18.571ZM191.55 138.865c.522.489 31.1 18.339 67.95 39.666 36.85 21.327 71.613 41.461 77.25 44.742l10.25 5.965v74.476c0 66.162-.169 74.411-1.517 73.894-.834-.32-9.047-5.034-18.25-10.476-20.508-12.125-72.037-42.17-109.983-64.129L189 286.656v-74.34c0-40.886.36-74.339.8-74.339.44 0 1.228.4 1.75.889ZM529 212.293v74.316l-4.25 2.363c-18.984 10.557-150.625 87.631-152.2 89.112-.523.491-1.31.893-1.75.893-.44 0-.8-33.686-.8-74.857v-74.856l30.75-17.79c16.913-9.785 47.625-27.575 68.25-39.534 57.389-33.275 58.449-33.883 59.25-33.924.413-.022.75 33.403.75 74.277Zm54.5 117.381c20.35 11.597 50.725 28.819 67.5 38.27 16.775 9.452 31.071 17.737 31.768 18.413 1.011.979-4.664 4.651-28 18.115a79451.634 79451.634 0 0 0-48.268 27.873 30341.61 30341.61 0 0 1-49.843 28.721l-30.842 17.735-11.158-6.533c-14.167-8.295-70.508-41.071-103.395-60.15-13.881-8.052-25.244-14.968-25.25-15.368-.015-.938-1.332-.144 39.488-23.793 19.25-11.152 43.775-25.444 54.5-31.759 10.725-6.316 24.9-14.636 31.5-18.488 6.6-3.853 15.825-9.357 20.5-12.233 8.477-5.214 8.508-5.223 11.5-3.558 1.65.918 19.65 11.158 40 22.755Zm-376.877-6.32c61.225 35.609 118.238 68.511 122.359 70.614 2.341 1.194 3.865 2.516 3.387 2.937-.478.421-9.419 5.712-19.869 11.757-10.45 6.046-32.5 18.858-49 28.473-63.489 36.995-70.798 41.175-71.992 41.175-1.15 0-13.807-7.21-72.508-41.304a26666.676 26666.676 0 0 0-53.725-31.089c-16.624-9.592-30.22-17.665-30.214-17.94.006-.275 8.207-5.202 18.225-10.949 84.194-48.303 109.019-62.643 115.833-66.913 3.509-2.199 6.661-4.03 7.004-4.068.342-.039 14.067 7.75 30.5 17.307ZM26.846 408.865c3.011 2.142 2.769 2 86.154 50.549 33.825 19.694 62.512 36.437 63.75 37.208l2.25 1.401V579.5c0 44.812-.254 81.477-.565 81.477-.311 0-12.799-7.136-27.75-15.858-28.643-16.708-77.315-44.94-94.185-54.631-5.5-3.159-15.287-8.859-21.75-12.666L23 570.901v-81.962c0-45.079.268-81.962.596-81.962.327 0 1.79.85 3.25 1.888Zm668.123 79.862-.031 81.75-15.719 9.159c-8.645 5.037-28.319 16.46-43.719 25.384-15.4 8.925-42.925 24.941-61.167 35.591-18.242 10.651-33.88 19.639-34.75 19.973-1.436.551-1.583-6.971-1.583-80.912v-81.52l8.25-4.723c15.214-8.71 88.946-51.576 118.75-69.037 16.225-9.506 29.612-17.313 29.75-17.349.138-.036.236 36.722.219 81.684Zm-348.213 5.363-.256 79.113-25 14.754c-13.75 8.115-32.2 19.019-41 24.23-39.435 23.354-56.562 33.462-64 37.775-4.4 2.551-9.238 5.45-10.75 6.442l-2.75 1.803V498.166l6.25-3.613c3.438-1.987 35.5-20.679 71.25-41.536 35.75-20.857 65.34-37.949 65.756-37.981.416-.033.641 35.542.5 79.054Zm43.967-67.789c9.778 5.724 30.602 17.845 46.277 26.935 15.675 9.091 39.264 22.864 52.42 30.608 13.156 7.744 24.296 14.205 24.756 14.358.46.154.721 36.365.58 80.47l-.256 80.192-19.5-11.791c-10.725-6.485-36.825-22.038-58-34.562-21.175-12.524-41.65-24.68-45.5-27.014a930.887 930.887 0 0 0-14.25-8.426l-7.25-4.182v-79.063c0-69.234.183-78.993 1.473-78.498.811.311 9.473 5.249 19.25 10.973Z" clip-rule="evenodd"/><defs><radialGradient id="a" cx="0" cy="0" r="1" gradientTransform="matrix(0 445 -461.895 0 359 27)" gradientUnits="userSpaceOnUse"><stop stop-color="#FFEA00"/><stop offset="1" stop-color="#FFC800"/></radialGradient></defs></svg>